<?xml version="1.0" encoding="utf-8"?>
<!-- Generator: Adobe Illustrator 24.2.0, SVG Export Plug-In . SVG Version: 6.00 Build 0)  -->
<svg version="1.1" id="Capa_1" xmlns="http://www.w3.org/2000/svg" xmlns:xlink="http://www.w3.org/1999/xlink" x="0px" y="0px"
	 width="217.93px" height="217.67px" viewBox="0 0 217.93 217.67" enable-background="new 0 0 217.93 217.67" xml:space="preserve">
<polygon fill="none" stroke="#FFFFFF" stroke-miterlimit="10" points="164.61,59.03 154.21,59.03 155.86,48.63 166.25,48.63 "/>
<polygon fill="none" stroke="#FFFFFF" stroke-miterlimit="10" points="194.17,32.13 183.77,32.13 185.42,21.73 195.81,21.73 "/>
<polygon fill="none" stroke="#FFFFFF" stroke-miterlimit="10" points="125.23,132.23 105.04,132.23 108.24,112.04 128.42,112.04 "/>
<polygon fill="none" stroke="#FFFFFF" stroke-miterlimit="10" points="139.5,42.22 119.31,42.22 122.51,22.03 142.69,22.03 "/>
<circle opacity="0.25" fill="none" stroke="#FFFFFF" stroke-width="7" stroke-miterlimit="10" cx="108.77" cy="109.03" r="101.2"/>
<polygon fill="#FFFFFF" points="83.36,32.12 53.23,32.12 27.84,192.46 57.96,192.46 "/>
<polygon fill="#FFFFFF" points="128.42,32.12 98.3,32.12 72.9,192.46 103.03,192.46 "/>
<polygon fill="#FFFFFF" points="149.44,122.13 119.31,122.13 124.08,92.01 154.21,92.01 "/>
<polygon fill="#FFFFFF" points="158.81,62.25 128.69,62.25 133.46,32.13 163.59,32.13 "/>
<polygon fill="#FFFFFF" points="186.6,47.12 166.41,47.12 169.61,26.93 189.79,26.93 "/>
</svg>
