<?xml version="1.0" encoding="utf-8"?>
<!-- Generator: Adobe Illustrator 24.2.0, SVG Export Plug-In . SVG Version: 6.00 Build 0)  -->
<svg version="1.1" id="Capa_1" xmlns="http://www.w3.org/2000/svg" xmlns:xlink="http://www.w3.org/1999/xlink" x="0px" y="0px"
	 width="440.62px" height="310.85px" viewBox="0 0 440.62 310.85" enable-background="new 0 0 440.62 310.85" xml:space="preserve">
<polygon fill="none" stroke="#FFFFFF" stroke-miterlimit="10" points="279.74,59.03 269.35,59.03 270.99,48.63 281.39,48.63 "/>
<polygon fill="none" stroke="#FFFFFF" stroke-miterlimit="10" points="309.3,32.13 298.91,32.13 300.56,21.73 310.95,21.73 "/>
<polygon fill="none" stroke="#FFFFFF" stroke-miterlimit="10" points="240.36,132.23 220.18,132.23 223.37,112.04 243.56,112.04 "/>
<polygon fill="none" stroke="#FFFFFF" stroke-miterlimit="10" points="254.63,42.22 234.45,42.22 237.64,22.03 257.83,22.03 "/>
<circle opacity="0.25" fill="none" stroke="#FFFFFF" stroke-width="7" stroke-miterlimit="10" cx="223.91" cy="109.03" r="101.2"/>
<polygon fill="#FFFFFF" points="198.5,32.12 168.37,32.12 142.97,192.46 173.1,192.46 "/>
<polygon fill="#FFFFFF" points="243.56,32.12 213.43,32.12 188.04,192.46 218.16,192.46 "/>
<polygon fill="#FFFFFF" points="264.58,122.13 234.45,122.13 239.22,92.01 269.35,92.01 "/>
<polygon fill="#FFFFFF" points="273.95,62.25 243.82,62.25 248.59,32.13 278.72,32.13 "/>
<polygon fill="#FFFFFF" points="301.73,47.12 281.55,47.12 284.74,26.93 304.93,26.93 "/>
<g>
	<path fill="#FFFFFF" d="M31.11,233.7l-10.54,66.57h-8.59l10.54-66.57H31.11z"/>
	<path fill="#FFFFFF" d="M41.79,265.41c0.78-4.94,1.33-8.99,1.66-12.94h7.7l-0.76,7.9h0.2c3.09-4.54,9.33-8.99,17.23-8.99
		c6.62,0,16.26,3.95,13.67,20.35l-4.52,28.55h-8.69l4.36-27.56c1.22-7.7-0.63-14.13-8.83-14.13c-5.73,0-10.81,4.05-13.06,8.89
		c-0.57,1.09-1,2.57-1.23,4.05l-4.55,28.74h-8.69L41.79,265.41z"/>
	<path fill="#FFFFFF" d="M91.98,300.27l6.52-41.19h-6.72l1.05-6.62h6.72l0.36-2.27c1.06-6.72,3.52-12.84,8.17-16.69
		c3.76-3.16,8.31-4.45,12.36-4.45c3.06,0,5.62,0.69,7.19,1.38l-2.25,6.72c-1.19-0.59-2.89-1.09-5.36-1.09
		c-7.41,0-10.32,6.52-11.47,13.83l-0.41,2.57h11.56l-1.05,6.62h-11.56l-6.52,41.19H91.98z"/>
	<path fill="#FFFFFF" d="M165.76,275.98c-2.8,17.68-16.27,25.38-27.82,25.38c-12.94,0-21.41-9.48-19.02-24.59
		c2.53-16,14.49-25.39,27.73-25.39C160.37,251.38,168.07,261.36,165.76,275.98z M127.75,276.47c-1.66,10.47,3.11,18.37,11.61,18.37
		c8.3,0,15.75-7.8,17.46-18.57c1.28-8.1-1.14-18.37-11.41-18.37C135.14,257.9,129.19,267.38,127.75,276.47z"/>
	<path fill="#FFFFFF" d="M183.71,233.7h35.85l-1.14,7.21h-27.26l-3.5,22.13h25.19l-1.13,7.11h-25.19l-4.77,30.13h-8.59L183.71,233.7
		z"/>
	<path fill="#FFFFFF" d="M259.58,287.24c-0.78,4.94-1.37,9.29-1.67,13.04h-7.7l0.74-7.8h-0.2c-2.88,3.85-8.72,8.89-17.21,8.89
		c-7.51,0-15.84-4.15-13.18-20.94l4.43-27.95h8.69l-4.19,26.47c-1.44,9.09,0.36,15.21,8.26,15.21c5.83,0,10.52-4.05,12.71-7.9
		c0.7-1.29,1.24-2.87,1.49-4.45l4.65-29.34h8.69L259.58,287.24z"/>
	<path fill="#FFFFFF" d="M292.15,238.74l-2.17,13.73h12.45l-1.05,6.62h-12.45l-4.08,25.78c-0.94,5.93,0.21,9.29,5.05,9.29
		c2.27,0,4-0.3,5.13-0.59l-0.64,6.52c-1.79,0.69-4.53,1.18-7.89,1.18c-4.05,0-7.11-1.28-8.8-3.65c-2.06-2.57-2.28-6.82-1.39-12.45
		l4.13-26.08h-7.41l1.05-6.62h7.41l1.81-11.46L292.15,238.74z"/>
	<path fill="#FFFFFF" d="M346.69,287.24c-0.78,4.94-1.37,9.29-1.67,13.04h-7.7l0.74-7.8h-0.2c-2.88,3.85-8.72,8.89-17.21,8.89
		c-7.51,0-15.84-4.15-13.18-20.94l4.43-27.95h8.69l-4.19,26.47c-1.44,9.09,0.36,15.21,8.26,15.21c5.83,0,10.52-4.05,12.71-7.9
		c0.7-1.29,1.24-2.87,1.49-4.45l4.65-29.34h8.69L346.69,287.24z"/>
	<path fill="#FFFFFF" d="M364.26,267.38c0.89-5.63,1.56-10.47,1.97-14.91h7.61l-1.19,9.38h0.4c3.19-6.42,9.07-10.47,14.89-10.47
		c0.99,0,1.66,0.1,2.42,0.3l-1.3,8.2c-0.86-0.2-1.73-0.3-2.92-0.3c-6.12,0-11.2,4.64-13.42,11.16c-0.38,1.19-0.8,2.57-1.04,4.05
		l-4.04,25.48h-8.59L364.26,267.38z"/>
	<path fill="#FFFFFF" d="M398.73,277.95c-1.66,11.75,5.08,16.59,13.77,16.59c6.22,0,10.15-1.09,13.63-2.47l0.5,6.22
		c-3.28,1.38-8.77,2.96-16.37,2.96c-14.72,0-21.97-9.68-19.69-24.1s12.58-25.78,26.5-25.78c15.61,0,17.58,13.73,16.19,22.52
		c-0.28,1.78-0.7,3.16-0.94,4.05H398.73z M425.2,271.73c0.98-5.53-0.03-14.13-9.81-14.13c-8.79,0-13.93,8.1-15.57,14.13H425.2z"/>
</g>
</svg>
